<mxfile host="Electron" agent="Mozilla/5.0 (Windows NT 10.0; Win64; x64) AppleWebKit/537.36 (KHTML, like Gecko) draw.io/24.7.17 Chrome/128.0.6613.36 Electron/32.0.1 Safari/537.36" version="24.7.17">
  <diagram name="第 1 页" id="jiCCyVHoRuuDWaUez6bW">
    <mxGraphModel dx="875" dy="531" grid="1" gridSize="10" guides="1" tooltips="1" connect="1" arrows="1" fold="1" page="1" pageScale="1" pageWidth="827" pageHeight="1169" math="0" shadow="0">
      <root>
        <mxCell id="0" />
        <mxCell id="1" parent="0" />
        <mxCell id="Zt5lVVZnEz9uS3QHHJpR-75" value="" style="rounded=1;whiteSpace=wrap;html=1;fillColor=#f5f5f5;fontColor=#333333;strokeColor=#666666;fontFamily=Times New Roman;" parent="1" vertex="1">
          <mxGeometry x="278" y="571" width="118" height="247" as="geometry" />
        </mxCell>
        <mxCell id="Zt5lVVZnEz9uS3QHHJpR-66" style="edgeStyle=orthogonalEdgeStyle;rounded=1;orthogonalLoop=1;jettySize=auto;html=1;entryX=1;entryY=0.5;entryDx=0;entryDy=0;fontFamily=Times New Roman;endSize=3;curved=0;" parent="1" target="Zt5lVVZnEz9uS3QHHJpR-55" edge="1">
          <mxGeometry relative="1" as="geometry">
            <mxPoint x="330" y="720" as="sourcePoint" />
            <mxPoint x="407" y="904" as="targetPoint" />
            <Array as="points">
              <mxPoint x="330" y="720" />
              <mxPoint x="389" y="720" />
              <mxPoint x="389" y="656" />
            </Array>
          </mxGeometry>
        </mxCell>
        <mxCell id="Zt5lVVZnEz9uS3QHHJpR-51" value="" style="rounded=1;whiteSpace=wrap;html=1;fillColor=#f5f5f5;fontColor=#333333;strokeColor=#666666;fontFamily=Times New Roman;" parent="1" vertex="1">
          <mxGeometry x="130" y="654" width="120" height="163" as="geometry" />
        </mxCell>
        <mxCell id="Zt5lVVZnEz9uS3QHHJpR-5" style="edgeStyle=orthogonalEdgeStyle;rounded=0;orthogonalLoop=1;jettySize=auto;html=1;exitX=0.5;exitY=0;exitDx=0;exitDy=0;entryX=0.5;entryY=1;entryDx=0;entryDy=0;strokeWidth=1;fontFamily=Times New Roman;endSize=3;" parent="1" source="Zt5lVVZnEz9uS3QHHJpR-1" target="Zt5lVVZnEz9uS3QHHJpR-2" edge="1">
          <mxGeometry relative="1" as="geometry" />
        </mxCell>
        <mxCell id="Zt5lVVZnEz9uS3QHHJpR-1" value="Multi-Head Attention" style="rounded=1;whiteSpace=wrap;html=1;fontFamily=Times New Roman;fillColor=#ffe1bb;strokeColor=#000000;strokeWidth=1;" parent="1" vertex="1">
          <mxGeometry x="160" y="760" width="80" height="30" as="geometry" />
        </mxCell>
        <mxCell id="Zt5lVVZnEz9uS3QHHJpR-2" value="Feed&lt;div&gt;Forwad&lt;/div&gt;" style="rounded=1;whiteSpace=wrap;html=1;fontFamily=Times New Roman;strokeWidth=1;fillColor=#c2e7f7;" parent="1" vertex="1">
          <mxGeometry x="160" y="687" width="80" height="30" as="geometry" />
        </mxCell>
        <mxCell id="Zt5lVVZnEz9uS3QHHJpR-30" style="edgeStyle=orthogonalEdgeStyle;rounded=1;orthogonalLoop=1;jettySize=auto;html=1;entryX=0;entryY=0.5;entryDx=0;entryDy=0;fontFamily=Times New Roman;endSize=3;curved=0;" parent="1" target="Zt5lVVZnEz9uS3QHHJpR-4" edge="1">
          <mxGeometry relative="1" as="geometry">
            <Array as="points">
              <mxPoint x="200" y="730" />
              <mxPoint x="140" y="730" />
              <mxPoint x="140" y="675" />
            </Array>
            <mxPoint x="200" y="730" as="sourcePoint" />
          </mxGeometry>
        </mxCell>
        <mxCell id="Zt5lVVZnEz9uS3QHHJpR-3" value="Add &amp;amp; Norm" style="rounded=1;whiteSpace=wrap;html=1;fontFamily=Times New Roman;fillColor=#f2f4c2;strokeColor=#000000;strokeWidth=1;" parent="1" vertex="1">
          <mxGeometry x="160" y="740" width="80" height="15" as="geometry" />
        </mxCell>
        <mxCell id="Zt5lVVZnEz9uS3QHHJpR-4" value="Add &amp;amp; Norm" style="rounded=1;whiteSpace=wrap;html=1;fontFamily=Times New Roman;strokeWidth=1;fillColor=#f4f6c3;" parent="1" vertex="1">
          <mxGeometry x="160" y="667" width="80" height="15" as="geometry" />
        </mxCell>
        <mxCell id="Zt5lVVZnEz9uS3QHHJpR-21" style="edgeStyle=orthogonalEdgeStyle;rounded=0;orthogonalLoop=1;jettySize=auto;html=1;entryX=0.5;entryY=1;entryDx=0;entryDy=0;fontFamily=Times New Roman;endSize=3;" parent="1" source="Zt5lVVZnEz9uS3QHHJpR-8" target="Zt5lVVZnEz9uS3QHHJpR-1" edge="1">
          <mxGeometry relative="1" as="geometry" />
        </mxCell>
        <mxCell id="Zt5lVVZnEz9uS3QHHJpR-25" style="edgeStyle=orthogonalEdgeStyle;rounded=1;orthogonalLoop=1;jettySize=auto;html=1;entryX=0.873;entryY=0.99;entryDx=0;entryDy=0;entryPerimeter=0;fontFamily=Times New Roman;endSize=3;curved=0;" parent="1" target="Zt5lVVZnEz9uS3QHHJpR-1" edge="1">
          <mxGeometry relative="1" as="geometry">
            <Array as="points">
              <mxPoint x="200" y="800" />
              <mxPoint x="230" y="800" />
            </Array>
            <mxPoint x="200" y="800" as="sourcePoint" />
          </mxGeometry>
        </mxCell>
        <mxCell id="Zt5lVVZnEz9uS3QHHJpR-28" style="edgeStyle=orthogonalEdgeStyle;rounded=1;orthogonalLoop=1;jettySize=auto;html=1;entryX=0;entryY=0.5;entryDx=0;entryDy=0;fontFamily=Times New Roman;endSize=3;curved=0;" parent="1" target="Zt5lVVZnEz9uS3QHHJpR-3" edge="1">
          <mxGeometry relative="1" as="geometry">
            <Array as="points">
              <mxPoint x="200" y="810" />
              <mxPoint x="140" y="810" />
              <mxPoint x="140" y="748" />
            </Array>
            <mxPoint x="200" y="810" as="sourcePoint" />
          </mxGeometry>
        </mxCell>
        <mxCell id="Zt5lVVZnEz9uS3QHHJpR-8" value="" style="shape=orEllipse;perimeter=ellipsePerimeter;whiteSpace=wrap;html=1;backgroundOutline=1;fontFamily=Times New Roman;" parent="1" vertex="1">
          <mxGeometry x="195" y="830.09" width="10" height="10" as="geometry" />
        </mxCell>
        <mxCell id="Zt5lVVZnEz9uS3QHHJpR-19" style="edgeStyle=orthogonalEdgeStyle;rounded=0;orthogonalLoop=1;jettySize=auto;html=1;entryX=0.5;entryY=1;entryDx=0;entryDy=0;fontFamily=Times New Roman;endSize=3;" parent="1" source="Zt5lVVZnEz9uS3QHHJpR-18" target="Zt5lVVZnEz9uS3QHHJpR-8" edge="1">
          <mxGeometry relative="1" as="geometry" />
        </mxCell>
        <mxCell id="Zt5lVVZnEz9uS3QHHJpR-18" value="Input&lt;div&gt;Embedding&lt;/div&gt;" style="rounded=1;whiteSpace=wrap;html=1;fontFamily=Times New Roman;fillColor=#fcdfe1;strokeColor=#000000;strokeWidth=1;" parent="1" vertex="1">
          <mxGeometry x="160" y="853" width="80" height="30" as="geometry" />
        </mxCell>
        <mxCell id="Zt5lVVZnEz9uS3QHHJpR-27" style="edgeStyle=orthogonalEdgeStyle;rounded=0;orthogonalLoop=1;jettySize=auto;html=1;entryX=0;entryY=0.5;entryDx=0;entryDy=0;endArrow=none;endFill=0;fontFamily=Times New Roman;" parent="1" source="Zt5lVVZnEz9uS3QHHJpR-9" target="Zt5lVVZnEz9uS3QHHJpR-8" edge="1">
          <mxGeometry relative="1" as="geometry" />
        </mxCell>
        <mxCell id="Zt5lVVZnEz9uS3QHHJpR-9" value="" style="ellipse;whiteSpace=wrap;html=1;aspect=fixed;movable=1;resizable=1;rotatable=1;deletable=1;editable=1;locked=0;connectable=1;container=0;fontFamily=Times New Roman;" parent="1" vertex="1">
          <mxGeometry x="161" y="825.09" width="20" height="20" as="geometry" />
        </mxCell>
        <mxCell id="Zt5lVVZnEz9uS3QHHJpR-16" value="" style="endArrow=none;html=1;rounded=0;edgeStyle=orthogonalEdgeStyle;curved=1;movable=1;resizable=1;rotatable=1;deletable=1;editable=1;locked=0;connectable=1;fontFamily=Times New Roman;" parent="1" edge="1">
          <mxGeometry width="50" height="50" relative="1" as="geometry">
            <mxPoint x="160.97" y="835.0833333333334" as="sourcePoint" />
            <mxPoint x="180.97" y="835.0833333333334" as="targetPoint" />
            <Array as="points">
              <mxPoint x="160.97" y="828.4166666666667" />
              <mxPoint x="170.97" y="828.4166666666667" />
              <mxPoint x="170.97" y="841.75" />
              <mxPoint x="180.97" y="841.75" />
            </Array>
          </mxGeometry>
        </mxCell>
        <mxCell id="Zt5lVVZnEz9uS3QHHJpR-24" style="edgeStyle=orthogonalEdgeStyle;rounded=0;orthogonalLoop=1;jettySize=auto;html=1;exitX=0.5;exitY=0;exitDx=0;exitDy=0;entryX=0.5;entryY=1;entryDx=0;entryDy=0;fontFamily=Times New Roman;endSize=3;" parent="1" source="Zt5lVVZnEz9uS3QHHJpR-23" target="Zt5lVVZnEz9uS3QHHJpR-18" edge="1">
          <mxGeometry relative="1" as="geometry" />
        </mxCell>
        <mxCell id="Zt5lVVZnEz9uS3QHHJpR-23" value="Inputs" style="text;html=1;align=center;verticalAlign=middle;whiteSpace=wrap;rounded=0;fontFamily=Times New Roman;" parent="1" vertex="1">
          <mxGeometry x="170" y="901" width="60" height="30" as="geometry" />
        </mxCell>
        <mxCell id="Zt5lVVZnEz9uS3QHHJpR-26" style="edgeStyle=orthogonalEdgeStyle;rounded=1;orthogonalLoop=1;jettySize=auto;html=1;entryX=0.125;entryY=1;entryDx=0;entryDy=0;entryPerimeter=0;fontFamily=Times New Roman;endSize=3;curved=0;" parent="1" target="Zt5lVVZnEz9uS3QHHJpR-1" edge="1">
          <mxGeometry relative="1" as="geometry">
            <Array as="points">
              <mxPoint x="200" y="800" />
              <mxPoint x="170" y="800" />
            </Array>
            <mxPoint x="200" y="800" as="sourcePoint" />
          </mxGeometry>
        </mxCell>
        <mxCell id="Zt5lVVZnEz9uS3QHHJpR-32" value="Masked&amp;nbsp;&lt;div&gt;Multi-Head Attention&lt;/div&gt;" style="rounded=1;whiteSpace=wrap;html=1;fontFamily=Times New Roman;fillColor=#ffe1bb;strokeColor=#000000;strokeWidth=1;" parent="1" vertex="1">
          <mxGeometry x="290" y="747" width="80" height="45" as="geometry" />
        </mxCell>
        <mxCell id="Zt5lVVZnEz9uS3QHHJpR-33" value="Feed&lt;div&gt;Forwad&lt;/div&gt;" style="rounded=1;whiteSpace=wrap;html=1;fontFamily=Times New Roman;strokeWidth=1;fillColor=#c2e7f7;" parent="1" vertex="1">
          <mxGeometry x="290" y="598" width="80" height="30" as="geometry" />
        </mxCell>
        <mxCell id="Zt5lVVZnEz9uS3QHHJpR-36" value="Add &amp;amp; Norm" style="rounded=1;whiteSpace=wrap;html=1;fontFamily=Times New Roman;strokeWidth=1;fillColor=#f4f6c3;" parent="1" vertex="1">
          <mxGeometry x="290" y="578" width="80" height="15" as="geometry" />
        </mxCell>
        <mxCell id="Zt5lVVZnEz9uS3QHHJpR-37" style="edgeStyle=orthogonalEdgeStyle;rounded=0;orthogonalLoop=1;jettySize=auto;html=1;entryX=0.5;entryY=1;entryDx=0;entryDy=0;fontFamily=Times New Roman;targetPerimeterSpacing=1;endSize=3;" parent="1" source="Zt5lVVZnEz9uS3QHHJpR-40" target="Zt5lVVZnEz9uS3QHHJpR-32" edge="1">
          <mxGeometry relative="1" as="geometry" />
        </mxCell>
        <mxCell id="Zt5lVVZnEz9uS3QHHJpR-38" style="edgeStyle=orthogonalEdgeStyle;rounded=1;orthogonalLoop=1;jettySize=auto;html=1;entryX=0.873;entryY=0.99;entryDx=0;entryDy=0;entryPerimeter=0;fontFamily=Times New Roman;targetPerimeterSpacing=1;endSize=3;curved=0;" parent="1" target="Zt5lVVZnEz9uS3QHHJpR-32" edge="1">
          <mxGeometry relative="1" as="geometry">
            <Array as="points">
              <mxPoint x="330" y="800" />
              <mxPoint x="360" y="800" />
            </Array>
            <mxPoint x="330" y="800" as="sourcePoint" />
          </mxGeometry>
        </mxCell>
        <mxCell id="Zt5lVVZnEz9uS3QHHJpR-39" style="edgeStyle=orthogonalEdgeStyle;rounded=1;orthogonalLoop=1;jettySize=auto;html=1;fontFamily=Times New Roman;endSize=3;entryX=1;entryY=0.5;entryDx=0;entryDy=0;curved=0;" parent="1" target="Zt5lVVZnEz9uS3QHHJpR-35" edge="1">
          <mxGeometry relative="1" as="geometry">
            <Array as="points">
              <mxPoint x="330" y="810" />
              <mxPoint x="389" y="810" />
              <mxPoint x="389" y="734" />
            </Array>
            <mxPoint x="369" y="748" as="targetPoint" />
            <mxPoint x="330" y="810" as="sourcePoint" />
          </mxGeometry>
        </mxCell>
        <mxCell id="Zt5lVVZnEz9uS3QHHJpR-40" value="" style="shape=orEllipse;perimeter=ellipsePerimeter;whiteSpace=wrap;html=1;backgroundOutline=1;fontFamily=Times New Roman;" parent="1" vertex="1">
          <mxGeometry x="325" y="830.09" width="10" height="10" as="geometry" />
        </mxCell>
        <mxCell id="Zt5lVVZnEz9uS3QHHJpR-41" style="edgeStyle=orthogonalEdgeStyle;rounded=0;orthogonalLoop=1;jettySize=auto;html=1;entryX=0.5;entryY=1;entryDx=0;entryDy=0;fontFamily=Times New Roman;endSize=3;" parent="1" source="Zt5lVVZnEz9uS3QHHJpR-42" target="Zt5lVVZnEz9uS3QHHJpR-40" edge="1">
          <mxGeometry relative="1" as="geometry" />
        </mxCell>
        <mxCell id="Zt5lVVZnEz9uS3QHHJpR-42" value="Output&lt;div&gt;Embedding&lt;/div&gt;" style="rounded=1;whiteSpace=wrap;html=1;fontFamily=Times New Roman;fillColor=#fcdfe1;strokeColor=#000000;strokeWidth=1;" parent="1" vertex="1">
          <mxGeometry x="290" y="854" width="80" height="30" as="geometry" />
        </mxCell>
        <mxCell id="Zt5lVVZnEz9uS3QHHJpR-43" style="edgeStyle=orthogonalEdgeStyle;rounded=0;orthogonalLoop=1;jettySize=auto;html=1;entryX=1;entryY=0.5;entryDx=0;entryDy=0;endArrow=none;endFill=0;fontFamily=Times New Roman;" parent="1" source="Zt5lVVZnEz9uS3QHHJpR-44" target="Zt5lVVZnEz9uS3QHHJpR-40" edge="1">
          <mxGeometry relative="1" as="geometry" />
        </mxCell>
        <mxCell id="Zt5lVVZnEz9uS3QHHJpR-44" value="" style="ellipse;whiteSpace=wrap;html=1;aspect=fixed;movable=1;resizable=1;rotatable=1;deletable=1;editable=1;locked=0;connectable=1;container=0;fontFamily=Times New Roman;" parent="1" vertex="1">
          <mxGeometry x="350" y="825.09" width="20" height="20" as="geometry" />
        </mxCell>
        <mxCell id="Zt5lVVZnEz9uS3QHHJpR-45" value="" style="endArrow=none;html=1;rounded=0;edgeStyle=orthogonalEdgeStyle;curved=1;movable=1;resizable=1;rotatable=1;deletable=1;editable=1;locked=0;connectable=1;fontFamily=Times New Roman;" parent="1" edge="1">
          <mxGeometry width="50" height="50" relative="1" as="geometry">
            <mxPoint x="349.97" y="835.0833333333334" as="sourcePoint" />
            <mxPoint x="369.97" y="835.0833333333334" as="targetPoint" />
            <Array as="points">
              <mxPoint x="349.97" y="828.4166666666667" />
              <mxPoint x="359.97" y="828.4166666666667" />
              <mxPoint x="359.97" y="841.75" />
              <mxPoint x="369.97" y="841.75" />
            </Array>
          </mxGeometry>
        </mxCell>
        <mxCell id="Zt5lVVZnEz9uS3QHHJpR-46" style="edgeStyle=orthogonalEdgeStyle;rounded=0;orthogonalLoop=1;jettySize=auto;html=1;exitX=0.5;exitY=0;exitDx=0;exitDy=0;entryX=0.5;entryY=1;entryDx=0;entryDy=0;fontFamily=Times New Roman;endSize=3;" parent="1" source="Zt5lVVZnEz9uS3QHHJpR-47" target="Zt5lVVZnEz9uS3QHHJpR-42" edge="1">
          <mxGeometry relative="1" as="geometry" />
        </mxCell>
        <mxCell id="Zt5lVVZnEz9uS3QHHJpR-47" value="Outputs&lt;div&gt;(Shifted Right)&lt;/div&gt;" style="text;html=1;align=center;verticalAlign=middle;whiteSpace=wrap;rounded=0;fontFamily=Times New Roman;" parent="1" vertex="1">
          <mxGeometry x="295.5" y="909" width="74.5" height="30" as="geometry" />
        </mxCell>
        <mxCell id="Zt5lVVZnEz9uS3QHHJpR-48" style="edgeStyle=orthogonalEdgeStyle;rounded=1;orthogonalLoop=1;jettySize=auto;html=1;entryX=0.125;entryY=1;entryDx=0;entryDy=0;entryPerimeter=0;fontFamily=Times New Roman;targetPerimeterSpacing=1;endSize=3;curved=0;" parent="1" target="Zt5lVVZnEz9uS3QHHJpR-32" edge="1">
          <mxGeometry relative="1" as="geometry">
            <Array as="points">
              <mxPoint x="330" y="800" />
              <mxPoint x="300" y="800" />
            </Array>
            <mxPoint x="330" y="800" as="sourcePoint" />
          </mxGeometry>
        </mxCell>
        <mxCell id="Zt5lVVZnEz9uS3QHHJpR-52" value="Positional&lt;div&gt;Encoding&lt;/div&gt;" style="text;html=1;align=center;verticalAlign=middle;whiteSpace=wrap;rounded=0;fontFamily=Times New Roman;" parent="1" vertex="1">
          <mxGeometry x="100" y="821" width="60" height="30" as="geometry" />
        </mxCell>
        <mxCell id="Zt5lVVZnEz9uS3QHHJpR-53" value="Positional&lt;div&gt;Encoding&lt;/div&gt;" style="text;html=1;align=center;verticalAlign=middle;whiteSpace=wrap;rounded=0;fontFamily=Times New Roman;" parent="1" vertex="1">
          <mxGeometry x="373" y="821" width="60" height="30" as="geometry" />
        </mxCell>
        <mxCell id="Zt5lVVZnEz9uS3QHHJpR-54" value="Multi-Head Attention" style="rounded=1;whiteSpace=wrap;html=1;fontFamily=Times New Roman;fillColor=#ffe1bb;strokeColor=#000000;strokeWidth=1;" parent="1" vertex="1">
          <mxGeometry x="290" y="669" width="80" height="30" as="geometry" />
        </mxCell>
        <mxCell id="Zt5lVVZnEz9uS3QHHJpR-58" style="edgeStyle=orthogonalEdgeStyle;rounded=1;orthogonalLoop=1;jettySize=auto;html=1;exitX=0.5;exitY=0;exitDx=0;exitDy=0;strokeWidth=1;fontFamily=Times New Roman;endSize=3;entryX=0.5;entryY=1;entryDx=0;entryDy=0;curved=0;" parent="1" source="Zt5lVVZnEz9uS3QHHJpR-4" target="Zt5lVVZnEz9uS3QHHJpR-54" edge="1">
          <mxGeometry relative="1" as="geometry">
            <mxPoint x="210" y="770" as="sourcePoint" />
            <mxPoint x="320" y="710" as="targetPoint" />
            <Array as="points">
              <mxPoint x="200" y="647" />
              <mxPoint x="260" y="647" />
              <mxPoint x="260" y="710" />
              <mxPoint x="330" y="710" />
            </Array>
          </mxGeometry>
        </mxCell>
        <mxCell id="Zt5lVVZnEz9uS3QHHJpR-61" style="edgeStyle=orthogonalEdgeStyle;rounded=1;orthogonalLoop=1;jettySize=auto;html=1;entryX=0.132;entryY=0.944;entryDx=0;entryDy=0;fontFamily=Times New Roman;endSize=3;entryPerimeter=0;exitX=0.5;exitY=0;exitDx=0;exitDy=0;curved=0;" parent="1" source="Zt5lVVZnEz9uS3QHHJpR-4" target="Zt5lVVZnEz9uS3QHHJpR-54" edge="1">
          <mxGeometry relative="1" as="geometry">
            <mxPoint x="210" y="863" as="sourcePoint" />
            <mxPoint x="210" y="850" as="targetPoint" />
            <Array as="points">
              <mxPoint x="200" y="647" />
              <mxPoint x="260" y="647" />
              <mxPoint x="260" y="710" />
              <mxPoint x="300" y="710" />
              <mxPoint x="300" y="697" />
            </Array>
          </mxGeometry>
        </mxCell>
        <mxCell id="Zt5lVVZnEz9uS3QHHJpR-65" style="edgeStyle=orthogonalEdgeStyle;rounded=0;orthogonalLoop=1;jettySize=auto;html=1;entryX=0.5;entryY=1;entryDx=0;entryDy=0;fontFamily=Times New Roman;endSize=3;exitX=0.5;exitY=0;exitDx=0;exitDy=0;" parent="1" source="Zt5lVVZnEz9uS3QHHJpR-54" target="Zt5lVVZnEz9uS3QHHJpR-33" edge="1">
          <mxGeometry relative="1" as="geometry">
            <mxPoint x="407" y="930" as="sourcePoint" />
            <mxPoint x="407" y="904" as="targetPoint" />
          </mxGeometry>
        </mxCell>
        <mxCell id="Zt5lVVZnEz9uS3QHHJpR-67" style="edgeStyle=orthogonalEdgeStyle;rounded=1;orthogonalLoop=1;jettySize=auto;html=1;entryX=1;entryY=0.5;entryDx=0;entryDy=0;fontFamily=Times New Roman;endSize=3;curved=0;" parent="1" target="Zt5lVVZnEz9uS3QHHJpR-36" edge="1">
          <mxGeometry relative="1" as="geometry">
            <mxPoint x="330" y="640" as="sourcePoint" />
            <mxPoint x="417" y="914" as="targetPoint" />
            <Array as="points">
              <mxPoint x="330" y="640" />
              <mxPoint x="389" y="640" />
              <mxPoint x="389" y="586" />
            </Array>
          </mxGeometry>
        </mxCell>
        <mxCell id="Zt5lVVZnEz9uS3QHHJpR-69" style="edgeStyle=orthogonalEdgeStyle;rounded=0;orthogonalLoop=1;jettySize=auto;html=1;entryX=0.5;entryY=1;entryDx=0;entryDy=0;fontFamily=Times New Roman;endSize=3;exitX=0.5;exitY=0;exitDx=0;exitDy=0;" parent="1" source="Zt5lVVZnEz9uS3QHHJpR-73" target="Zt5lVVZnEz9uS3QHHJpR-74" edge="1">
          <mxGeometry relative="1" as="geometry">
            <mxPoint x="417" y="940" as="sourcePoint" />
            <mxPoint x="417" y="914" as="targetPoint" />
          </mxGeometry>
        </mxCell>
        <mxCell id="Zt5lVVZnEz9uS3QHHJpR-70" style="edgeStyle=orthogonalEdgeStyle;rounded=0;orthogonalLoop=1;jettySize=auto;html=1;entryX=0.5;entryY=1;entryDx=0;entryDy=0;fontFamily=Times New Roman;endSize=3;exitX=0.5;exitY=0;exitDx=0;exitDy=0;" parent="1" source="Zt5lVVZnEz9uS3QHHJpR-72" target="Zt5lVVZnEz9uS3QHHJpR-73" edge="1">
          <mxGeometry relative="1" as="geometry">
            <mxPoint x="427" y="950" as="sourcePoint" />
            <mxPoint x="427" y="924" as="targetPoint" />
          </mxGeometry>
        </mxCell>
        <mxCell id="Zt5lVVZnEz9uS3QHHJpR-71" style="edgeStyle=orthogonalEdgeStyle;rounded=0;orthogonalLoop=1;jettySize=auto;html=1;entryX=0.5;entryY=1;entryDx=0;entryDy=0;fontFamily=Times New Roman;endSize=3;exitX=0.5;exitY=0;exitDx=0;exitDy=0;" parent="1" source="Zt5lVVZnEz9uS3QHHJpR-36" target="Zt5lVVZnEz9uS3QHHJpR-72" edge="1">
          <mxGeometry relative="1" as="geometry">
            <mxPoint x="437" y="960" as="sourcePoint" />
            <mxPoint x="437" y="934" as="targetPoint" />
          </mxGeometry>
        </mxCell>
        <mxCell id="Zt5lVVZnEz9uS3QHHJpR-72" value="Linear" style="rounded=1;whiteSpace=wrap;html=1;fontFamily=Times New Roman;strokeWidth=1;fillColor=#dcdff0;" parent="1" vertex="1">
          <mxGeometry x="290" y="541" width="80" height="15" as="geometry" />
        </mxCell>
        <mxCell id="Zt5lVVZnEz9uS3QHHJpR-73" value="Softmax" style="rounded=1;whiteSpace=wrap;html=1;fontFamily=Times New Roman;strokeWidth=1;fillColor=#cbe7d0;" parent="1" vertex="1">
          <mxGeometry x="290" y="511" width="80" height="15" as="geometry" />
        </mxCell>
        <mxCell id="Zt5lVVZnEz9uS3QHHJpR-74" value="Outputs&lt;div&gt;Probabilities&lt;/div&gt;" style="text;html=1;align=center;verticalAlign=middle;whiteSpace=wrap;rounded=0;fontFamily=Times New Roman;" parent="1" vertex="1">
          <mxGeometry x="295.5" y="465" width="69" height="30" as="geometry" />
        </mxCell>
        <mxCell id="Zt5lVVZnEz9uS3QHHJpR-76" value="" style="edgeStyle=orthogonalEdgeStyle;rounded=1;orthogonalLoop=1;jettySize=auto;html=1;exitX=0.5;exitY=0;exitDx=0;exitDy=0;entryX=0.75;entryY=1;entryDx=0;entryDy=0;strokeWidth=1;fontFamily=Times New Roman;endSize=3;curved=0;" parent="1" source="Zt5lVVZnEz9uS3QHHJpR-32" target="Zt5lVVZnEz9uS3QHHJpR-54" edge="1">
          <mxGeometry relative="1" as="geometry">
            <mxPoint x="330" y="747" as="sourcePoint" />
            <mxPoint x="359" y="700" as="targetPoint" />
            <Array as="points">
              <mxPoint x="330" y="710" />
              <mxPoint x="350" y="710" />
            </Array>
          </mxGeometry>
        </mxCell>
        <mxCell id="Zt5lVVZnEz9uS3QHHJpR-35" value="Add &amp;amp; Norm" style="rounded=1;whiteSpace=wrap;html=1;fontFamily=Times New Roman;fillColor=#f2f4c2;strokeColor=#000000;strokeWidth=1;" parent="1" vertex="1">
          <mxGeometry x="290" y="726" width="80" height="15" as="geometry" />
        </mxCell>
        <mxCell id="Zt5lVVZnEz9uS3QHHJpR-55" value="Add &amp;amp; Norm" style="rounded=1;whiteSpace=wrap;html=1;fontFamily=Times New Roman;fillColor=#f2f4c2;strokeColor=#000000;strokeWidth=1;" parent="1" vertex="1">
          <mxGeometry x="290" y="649" width="80" height="15" as="geometry" />
        </mxCell>
        <mxCell id="Zt5lVVZnEz9uS3QHHJpR-77" value="N×" style="text;html=1;align=center;verticalAlign=middle;whiteSpace=wrap;rounded=0;fontFamily=Times New Roman;" parent="1" vertex="1">
          <mxGeometry x="100" y="729" width="30" height="26" as="geometry" />
        </mxCell>
        <mxCell id="Zt5lVVZnEz9uS3QHHJpR-78" value="N×" style="text;html=1;align=center;verticalAlign=middle;whiteSpace=wrap;rounded=0;fontFamily=Times New Roman;" parent="1" vertex="1">
          <mxGeometry x="396" y="682" width="30" height="26" as="geometry" />
        </mxCell>
      </root>
    </mxGraphModel>
  </diagram>
</mxfile>
